<svg width="16" height="16" viewBox="0 0 16 16" fill="none" xmlns="http://www.w3.org/2000/svg">
<path fill-rule="evenodd" clip-rule="evenodd" d="M12.7334 12.7734C13.1267 12.1734 13.2734 11.8668 13.5734 11.1934C11.36 10.3534 11.0067 7.20007 13.1934 5.99341C12.5267 5.15341 11.5867 4.66675 10.7 4.66675C10.06 4.66675 9.62004 4.83342 9.22671 4.98676C8.89338 5.11342 8.59338 5.22675 8.22005 5.22675C7.82005 5.22675 7.46671 5.10009 7.09338 4.96676C6.68671 4.82009 6.26004 4.66675 5.72671 4.66675C4.73338 4.66675 3.67338 5.27342 3.00004 6.31342C2.05338 7.78008 2.22005 10.5267 3.74671 12.8734C4.29338 13.7134 5.02671 14.6534 5.98005 14.6667C6.38005 14.6734 6.64004 14.5534 6.92671 14.4268C7.25338 14.2801 7.60671 14.1201 8.22671 14.1201C8.84671 14.1134 9.19338 14.2801 9.52004 14.4268C9.80004 14.5534 10.0534 14.6734 10.4467 14.6667C11.4134 14.6534 12.1867 13.6134 12.7334 12.7734Z" fill="#030303"/>
<path fill-rule="evenodd" clip-rule="evenodd" d="M10.5603 1.33325C10.667 2.06659 10.367 2.79326 9.97362 3.29993C9.55362 3.84659 8.82029 4.27325 8.11362 4.24658C7.98695 3.53992 8.31362 2.81325 8.71362 2.32658C9.16029 1.79325 9.91362 1.37992 10.5603 1.33325Z" fill="#030303"/>
</svg>
