<svg width="2988" height="473" viewBox="0 0 2988 473" fill="none" xmlns="http://www.w3.org/2000/svg">
<path d="M0 48.9668V471.306V472.836H112.216V176.485C112.216 149.441 134.139 127.518 161.183 127.518H252.996C280.039 127.518 301.962 149.441 301.962 176.485V472.836H410.098V176.485C410.098 149.441 432.021 127.518 459.065 127.518H505.481C532.525 127.518 554.448 149.441 554.448 176.485V472.836H661.563V138.229V48.9669C661.563 21.9232 639.64 0 612.596 0H352.46V40.8057L321.074 14.9205C309.379 5.27513 294.692 0 279.532 0H48.9669C21.9232 0 0 21.9232 0 48.9668Z" fill="#030303"/>
<path d="M1352.2 0H1460.84V287.281C1460.84 293.647 1461.57 299.992 1463.02 306.192C1469.7 334.794 1498.67 352.432 1527.23 345.591C1647.97 316.671 1737.71 213.304 1748.12 89.5872L1755.67 0H1850.03V83.652C1850.03 298.593 1675.79 472.836 1460.84 472.836H1417.49C1381.43 472.836 1352.2 443.606 1352.2 407.547V0Z" fill="#030303"/>
<path d="M1937.76 0H2046.41V287.281C2046.41 293.647 2047.14 299.992 2048.58 306.192C2055.26 334.794 2084.23 352.432 2112.79 345.591C2233.53 316.671 2323.27 213.304 2333.69 89.5872L2341.23 0H2435.59V83.652C2435.59 298.593 2261.35 472.836 2046.41 472.836H2003.05C1966.99 472.836 1937.76 443.606 1937.76 407.547V0Z" fill="#030303"/>
<path d="M2974.23 365.721H2878.84H2647.78C2639.61 365.721 2632.99 359.098 2632.99 350.929V326.445V144.35C2632.99 126.039 2647.83 111.195 2666.14 111.195H2679.92H2862.52H2865.58C2883.89 111.195 2898.74 126.039 2898.74 144.35V179.545V204.538C2898.74 224.539 2882.52 240.753 2862.52 240.753H2679.92V326.445H2862.52H2922.71C2958.77 326.445 2988 297.214 2988 261.156V210.149V92.3225C2988 43.5875 2948.49 4.08008 2899.76 4.08008H2862.52H2621.26C2567.17 4.08008 2523.32 47.9265 2523.32 102.014V366.741C2523.32 425.336 2570.82 472.836 2629.42 472.836H2974.23V365.721Z" fill="#030303"/>
<path d="M1017.59 0V114.256H919.659C883.601 114.256 854.37 143.487 854.37 179.545V292.271C854.37 328.329 883.601 357.56 919.659 357.56H1080.84C1116.9 357.56 1146.13 328.329 1146.13 292.271V179.545C1146.13 143.487 1116.9 114.256 1080.84 114.256H1018.1V0H1199.18C1235.24 0 1264.47 29.2309 1264.47 65.2891V407.547C1264.47 443.605 1235.24 472.836 1199.18 472.836H814.584C778.526 472.836 749.295 443.606 749.295 407.547V357.05V122.927V65.2892C749.295 29.231 778.526 0 814.584 0H1017.59Z" fill="#030303"/>
<path d="M1022.18 0H1014.02V114.256H1022.18V0Z" fill="#030303"/>
</svg>
