<svg width="95" height="19" viewBox="0 0 95 19" fill="none" xmlns="http://www.w3.org/2000/svg">
<path d="M1 2.6413V18.4834H5.24136V5.37204H11.4388L11.768 5.66254L12.2716 6.14672L12.504 6.97949V18.4834H16.5516V5.37204H20.9867L21.4708 5.66254L22.0519 6.20482V6.97949V18.4834H26.0995V5.66254L25.7122 4.15192L24.647 2.6413L22.8459 1.28562H14.4019V2.19586L12.504 1.28562H2.41379L1.58101 1.57612L1 2.6413Z" fill="#030303"/>
<path d="M30.2053 4.15192L29.6243 5.66254V14.4358L30.2053 15.3654L31.1349 16.876L32.9748 18.1929L34.7372 18.4834L35.7055 18.7352L44.44 18.4834C44.6983 18.3866 45.2922 18.1929 45.602 18.1929C45.9119 18.1929 46.7124 17.5474 47.0739 17.2246L48.2359 16.0432L48.9719 14.7844V13.022V5.66254L47.8486 2.89307L46.5317 1.67296L45.1566 0.937012H43.646H36.151H34.6791L33.5558 1.28562L32.3938 1.67296L31.2705 2.6413L30.2053 4.15192Z" fill="#030303"/>
<path d="M52.7291 17.2246V0.937012H56.7961V14.0484H57.1254L57.8419 14.4358L61.8122 12.4216L64.601 9.55529L69.2878 0.937012H73.4711V1.28562L72.6189 4.15192L70.721 7.92847L68.6487 11.2402L65.2788 14.7844L61.8122 17.2246L57.8419 18.4834L53.8911 18.7352L52.7291 17.2246Z" fill="#030303"/>
<path d="M88.0931 14.6101V18.619H80.8499H79.6878H78.9906L78.2934 18.3091L77.5962 18.0767L76.8796 17.6894L76.4342 17.2246L75.7176 16.5274L75.1753 15.7914L74.5556 14.7844V13.5836V6.06925L74.8267 5.66254V5.06217L75.1753 3.93889L75.7176 3.14484L76.8796 2.02156L77.8673 1.28562L79.4942 0.937012H89.5262L91.8309 2.02156L93.787 4.73293L94 6.68899L93.5933 8.93555L91.8309 11.2402L90.8432 12.1117L88.9646 12.5572L80.5787 12.3441V8.60632H88.1706L88.7322 8.45138L89.5262 7.92847L89.7586 7.2119V6.06925L89.5262 5.66254L88.9646 5.3333L88.2674 5.06217H80.1914L79.4942 5.3333L78.797 5.66254V6.51469V12.9832L79.1649 13.8354L79.959 14.397L88.0931 14.6101Z" fill="#030303"/>
<path d="M1 2.6413V18.4834H5.24136V5.37204H11.4388L11.768 5.66254L12.2716 6.14672L12.504 6.97949V18.4834H16.5516V5.37204H20.9867L21.4708 5.66254L22.0519 6.20482V6.97949V18.4834H26.0995V5.66254L25.7122 4.15192L24.647 2.6413L22.8459 1.28562H14.4019V2.19586L12.504 1.28562H2.41379L1.58101 1.57612L1 2.6413Z" stroke="#030303" stroke-width="0.0387339"/>
<path d="M30.2053 4.15192L29.6243 5.66254V14.4358L30.2053 15.3654L31.1349 16.876L32.9748 18.1929L34.7372 18.4834L35.7055 18.7352L44.44 18.4834C44.6983 18.3866 45.2922 18.1929 45.602 18.1929C45.9119 18.1929 46.7124 17.5474 47.0739 17.2246L48.2359 16.0432L48.9719 14.7844V13.022V5.66254L47.8486 2.89307L46.5317 1.67296L45.1566 0.937012H43.646H36.151H34.6791L33.5558 1.28562L32.3938 1.67296L31.2705 2.6413L30.2053 4.15192Z" stroke="#030303" stroke-width="0.0387339"/>
<path d="M52.7291 17.2246V0.937012H56.7961V14.0484H57.1254L57.8419 14.4358L61.8122 12.4216L64.601 9.55529L69.2878 0.937012H73.4711V1.28562L72.6189 4.15192L70.721 7.92847L68.6487 11.2402L65.2788 14.7844L61.8122 17.2246L57.8419 18.4834L53.8911 18.7352L52.7291 17.2246Z" stroke="#030303" stroke-width="0.0387339"/>
<path d="M88.0931 14.6101V18.619H80.8499H79.6878H78.9906L78.2934 18.3091L77.5962 18.0767L76.8796 17.6894L76.4342 17.2246L75.7176 16.5274L75.1753 15.7914L74.5556 14.7844V13.5836V6.06925L74.8267 5.66254V5.06217L75.1753 3.93889L75.7176 3.14484L76.8796 2.02156L77.8673 1.28562L79.4942 0.937012H89.5262L91.8309 2.02156L93.787 4.73293L94 6.68899L93.5933 8.93555L91.8309 11.2402L90.8432 12.1117L88.9646 12.5572L80.5787 12.3441V8.60632H88.1706L88.7322 8.45138L89.5262 7.92847L89.7586 7.2119V6.06925L89.5262 5.66254L88.9646 5.3333L88.2674 5.06217H80.1914L79.4942 5.3333L78.797 5.66254V6.51469V12.9832L79.1649 13.8354L79.959 14.397L88.0931 14.6101Z" stroke="#030303" stroke-width="0.0387339"/>
</svg>
