<svg width="365" height="32" viewBox="0 0 365 32" fill="none" xmlns="http://www.w3.org/2000/svg">
<path d="M1 7.33519V26.4139H6.10787V10.6238H13.5714L13.9679 10.9737L14.5743 11.5568L14.8542 12.5597V26.4139H19.7289V10.6238H25.07L25.6531 10.9737L26.3528 11.6267V12.5597V26.4139H31.2274V10.9737L30.7609 9.15443L29.4781 7.33519L27.309 5.70254H17.1399V6.79875L14.8542 5.70254H2.70262L1.69971 6.05239L1 7.33519Z" fill="white"/>
<path d="M36.172 9.15443L35.4723 10.9737V21.5393L36.172 22.6588L37.2915 24.4781L39.5073 26.0641L41.6297 26.4139L42.7959 26.7171L53.3149 26.4139C53.6259 26.2973 54.3411 26.0641 54.7143 26.0641C55.0875 26.0641 56.0515 25.2866 56.4869 24.8979L57.8863 23.4751L58.7726 21.9591V19.8366V10.9737L57.4198 7.6384L55.8338 6.16901L54.1778 5.28271H52.3586H43.3324H41.5598L40.207 5.70254L38.8076 6.16901L37.4548 7.33519L36.172 9.15443Z" fill="white"/>
<path d="M63.2974 24.8979V5.28271H68.1953V21.0728H68.5918L69.4548 21.5393L74.2362 19.1136L77.5948 15.6617L83.2391 5.28271H88.277V5.70254L87.2507 9.15443L84.965 13.7025L82.4694 17.6909L78.4111 21.9591L74.2362 24.8979L69.4548 26.4139L64.6968 26.7171L63.2974 24.8979Z" fill="white"/>
<path d="M105.886 21.7492V26.5772H97.1633H95.7639H94.9242L94.0845 26.204L93.2449 25.9241L92.3819 25.4576L91.8455 24.8979L90.9825 24.0582L90.3295 23.1719L89.5831 21.9591V20.513V11.4635L89.9096 10.9737V10.2506L90.3295 8.89788L90.9825 7.94161L92.3819 6.58884L93.5714 5.70254L95.5306 5.28271H107.612L110.388 6.58884L112.743 9.85414L113 12.2098L112.51 14.9154L110.388 17.6909L109.198 18.7404L106.936 19.2769L96.8367 19.0203V14.5189H105.98L106.656 14.3323L107.612 13.7025L107.892 12.8396V11.4635L107.612 10.9737L106.936 10.5772L106.096 10.2506H96.3703L95.5306 10.5772L94.691 10.9737V11.9999V19.79L95.1341 20.8162L96.0904 21.4926L105.886 21.7492Z" fill="white"/>
<path d="M1 7.33519V26.4139H6.10787V10.6238H13.5714L13.9679 10.9737L14.5743 11.5568L14.8542 12.5597V26.4139H19.7289V10.6238H25.07L25.6531 10.9737L26.3528 11.6267V12.5597V26.4139H31.2274V10.9737L30.7609 9.15443L29.4781 7.33519L27.309 5.70254H17.1399V6.79875L14.8542 5.70254H2.70262L1.69971 6.05239L1 7.33519Z" stroke="white" stroke-width="0.0466472"/>
<path d="M36.172 9.15443L35.4723 10.9737V21.5393L36.172 22.6588L37.2915 24.4781L39.5073 26.0641L41.6297 26.4139L42.7959 26.7171L53.3149 26.4139C53.6259 26.2973 54.3411 26.0641 54.7143 26.0641C55.0875 26.0641 56.0515 25.2866 56.4869 24.8979L57.8863 23.4751L58.7726 21.9591V19.8366V10.9737L57.4198 7.6384L55.8338 6.16901L54.1778 5.28271H52.3586H43.3324H41.5598L40.207 5.70254L38.8076 6.16901L37.4548 7.33519L36.172 9.15443Z" stroke="white" stroke-width="0.0466472"/>
<path d="M63.2974 24.8979V5.28271H68.1953V21.0728H68.5918L69.4548 21.5393L74.2362 19.1136L77.5948 15.6617L83.2391 5.28271H88.277V5.70254L87.2507 9.15443L84.965 13.7025L82.4694 17.6909L78.4111 21.9591L74.2362 24.8979L69.4548 26.4139L64.6968 26.7171L63.2974 24.8979Z" stroke="white" stroke-width="0.0466472"/>
<path d="M105.886 21.7492V26.5772H97.1633H95.7639H94.9242L94.0845 26.204L93.2449 25.9241L92.3819 25.4576L91.8455 24.8979L90.9825 24.0582L90.3295 23.1719L89.5831 21.9591V20.513V11.4635L89.9096 10.9737V10.2506L90.3295 8.89788L90.9825 7.94161L92.3819 6.58884L93.5714 5.70254L95.5306 5.28271H107.612L110.388 6.58884L112.743 9.85414L113 12.2098L112.51 14.9154L110.388 17.6909L109.198 18.7404L106.936 19.2769L96.8367 19.0203V14.5189H105.98L106.656 14.3323L107.612 13.7025L107.892 12.8396V11.4635L107.612 10.9737L106.936 10.5772L106.096 10.2506H96.3703L95.5306 10.5772L94.691 10.9737V11.9999V19.79L95.1341 20.8162L96.0904 21.4926L105.886 21.7492Z" stroke="white" stroke-width="0.0466472"/>
<path d="M41.1865 10.5307H42.0262L52.4052 10.4141L52.6617 10.5307L53.1049 10.7173L53.5713 11.417V12.0934V20.4899L53.4781 20.7697L53.3381 21.003L53.1049 21.2595L52.825 21.3995L52.4985 21.5161L51.6355 21.6094H41.723L41.3498 21.5161L40.9766 21.3295L40.7434 21.1662L40.3935 20.6298C40.3235 20.5054 40.1836 20.224 40.1836 20.0934V19.4403V12.3033L40.3935 11.417L40.79 10.8805L41.1865 10.5307Z" fill="#030303" stroke="white" stroke-width="0.0466472"/>
<path d="M162.667 18.6667V20.3333C162.667 21.62 161.621 22.6667 160.334 22.6667H153.667C152.381 22.6667 151.334 21.62 151.334 20.3333V19.9C151.334 18.8533 152.187 18 153.234 18H162.001C162.367 18 162.667 18.3 162.667 18.6667Z" fill="white"/>
<path d="M159.334 9.33325H154.667C152.001 9.33325 151.334 9.99992 151.334 12.6666V17.7199C151.841 17.2733 152.507 16.9999 153.234 16.9999H162.001C162.367 16.9999 162.667 16.6999 162.667 16.3333V12.6666C162.667 9.99992 162.001 9.33325 159.334 9.33325ZM157.667 15.1666H154.334C154.061 15.1666 153.834 14.9399 153.834 14.6666C153.834 14.3933 154.061 14.1666 154.334 14.1666H157.667C157.941 14.1666 158.167 14.3933 158.167 14.6666C158.167 14.9399 157.941 15.1666 157.667 15.1666ZM159.667 12.8333H154.334C154.061 12.8333 153.834 12.6066 153.834 12.3333C153.834 12.0599 154.061 11.8333 154.334 11.8333H159.667C159.941 11.8333 160.167 12.0599 160.167 12.3333C160.167 12.6066 159.941 12.8333 159.667 12.8333Z" fill="white"/>
<path d="M210.667 18.6667V20.3333C210.667 21.62 209.621 22.6667 208.334 22.6667H201.667C200.381 22.6667 199.334 21.62 199.334 20.3333V19.9C199.334 18.8533 200.187 18 201.234 18H210.001C210.367 18 210.667 18.3 210.667 18.6667Z" fill="white"/>
<path d="M207.334 9.33325H202.667C200.001 9.33325 199.334 9.99992 199.334 12.6666V17.7199C199.841 17.2733 200.507 16.9999 201.234 16.9999H210.001C210.367 16.9999 210.667 16.6999 210.667 16.3333V12.6666C210.667 9.99992 210.001 9.33325 207.334 9.33325ZM205.667 15.1666H202.334C202.061 15.1666 201.834 14.9399 201.834 14.6666C201.834 14.3933 202.061 14.1666 202.334 14.1666H205.667C205.941 14.1666 206.167 14.3933 206.167 14.6666C206.167 14.9399 205.941 15.1666 205.667 15.1666ZM207.667 12.8333H202.334C202.061 12.8333 201.834 12.6066 201.834 12.3333C201.834 12.0599 202.061 11.8333 202.334 11.8333H207.667C207.941 11.8333 208.167 12.0599 208.167 12.3333C208.167 12.6066 207.941 12.8333 207.667 12.8333Z" fill="white"/>
<path d="M258.667 18.6667V20.3333C258.667 21.62 257.621 22.6667 256.334 22.6667H249.667C248.381 22.6667 247.334 21.62 247.334 20.3333V19.9C247.334 18.8533 248.187 18 249.234 18H258.001C258.367 18 258.667 18.3 258.667 18.6667Z" fill="white"/>
<path d="M255.334 9.33325H250.667C248.001 9.33325 247.334 9.99992 247.334 12.6666V17.7199C247.841 17.2733 248.507 16.9999 249.234 16.9999H258.001C258.367 16.9999 258.667 16.6999 258.667 16.3333V12.6666C258.667 9.99992 258.001 9.33325 255.334 9.33325ZM253.667 15.1666H250.334C250.061 15.1666 249.834 14.9399 249.834 14.6666C249.834 14.3933 250.061 14.1666 250.334 14.1666H253.667C253.941 14.1666 254.167 14.3933 254.167 14.6666C254.167 14.9399 253.941 15.1666 253.667 15.1666ZM255.667 12.8333H250.334C250.061 12.8333 249.834 12.6066 249.834 12.3333C249.834 12.0599 250.061 11.8333 250.334 11.8333H255.667C255.941 11.8333 256.167 12.0599 256.167 12.3333C256.167 12.6066 255.941 12.8333 255.667 12.8333Z" fill="white"/>
<path d="M306.667 18.6667V20.3333C306.667 21.62 305.621 22.6667 304.334 22.6667H297.667C296.381 22.6667 295.334 21.62 295.334 20.3333V19.9C295.334 18.8533 296.187 18 297.234 18H306.001C306.367 18 306.667 18.3 306.667 18.6667Z" fill="white"/>
<path d="M303.334 9.33325H298.667C296.001 9.33325 295.334 9.99992 295.334 12.6666V17.7199C295.841 17.2733 296.507 16.9999 297.234 16.9999H306.001C306.367 16.9999 306.667 16.6999 306.667 16.3333V12.6666C306.667 9.99992 306.001 9.33325 303.334 9.33325ZM301.667 15.1666H298.334C298.061 15.1666 297.834 14.9399 297.834 14.6666C297.834 14.3933 298.061 14.1666 298.334 14.1666H301.667C301.941 14.1666 302.167 14.3933 302.167 14.6666C302.167 14.9399 301.941 15.1666 301.667 15.1666ZM303.667 12.8333H298.334C298.061 12.8333 297.834 12.6066 297.834 12.3333C297.834 12.0599 298.061 11.8333 298.334 11.8333H303.667C303.941 11.8333 304.167 12.0599 304.167 12.3333C304.167 12.6066 303.941 12.8333 303.667 12.8333Z" fill="white"/>
<path d="M354.667 18.6667V20.3333C354.667 21.62 353.621 22.6667 352.334 22.6667H345.667C344.381 22.6667 343.334 21.62 343.334 20.3333V19.9C343.334 18.8533 344.187 18 345.234 18H354.001C354.367 18 354.667 18.3 354.667 18.6667Z" fill="white"/>
<path d="M351.334 9.33325H346.667C344.001 9.33325 343.334 9.99992 343.334 12.6666V17.7199C343.841 17.2733 344.507 16.9999 345.234 16.9999H354.001C354.367 16.9999 354.667 16.6999 354.667 16.3333V12.6666C354.667 9.99992 354.001 9.33325 351.334 9.33325ZM349.667 15.1666H346.334C346.061 15.1666 345.834 14.9399 345.834 14.6666C345.834 14.3933 346.061 14.1666 346.334 14.1666H349.667C349.941 14.1666 350.167 14.3933 350.167 14.6666C350.167 14.9399 349.941 15.1666 349.667 15.1666ZM351.667 12.8333H346.334C346.061 12.8333 345.834 12.6066 345.834 12.3333C345.834 12.0599 346.061 11.8333 346.334 11.8333H351.667C351.941 11.8333 352.167 12.0599 352.167 12.3333C352.167 12.6066 351.941 12.8333 351.667 12.8333Z" fill="white"/>
</svg>
