<svg width="16" height="16" viewBox="0 0 16 16" fill="none" xmlns="http://www.w3.org/2000/svg">
<path d="M2.42553 2.2893L8.2522 8.0033L2.46887 13.77C2.37425 13.6468 2.3008 13.5086 2.25153 13.3613C2.22605 13.1945 2.22605 13.0248 2.25153 12.858V3.04464C2.2342 2.7813 2.29487 2.51797 2.42487 2.2893M10.7622 5.5113L8.8602 7.3953L3.10287 1.7333C3.28953 1.66864 3.48953 1.65064 3.68487 1.6813C3.99153 1.7653 4.2842 1.89464 4.55287 2.0633L9.76353 4.94664C10.1022 5.12864 10.4322 5.31997 10.7622 5.5113ZM8.86087 8.61997L10.7535 10.4786L9.38153 11.2426L5.19553 13.5693C4.84887 13.7606 4.50087 13.9433 4.1622 14.152C4.01728 14.2422 3.85479 14.3005 3.68556 14.3229C3.51634 14.3453 3.34427 14.3313 3.18087 14.282L8.86087 8.61997ZM13.7675 8.0033C13.7724 8.23642 13.7135 8.46644 13.5972 8.66852C13.4809 8.87061 13.3115 9.03708 13.1075 9.14997L11.5435 10.018L9.48553 8.0033L11.5522 5.95397C12.0822 6.2493 12.6035 6.54464 13.1242 6.82264C13.3318 6.9387 13.5024 7.11117 13.6161 7.32011C13.7299 7.52905 13.7828 7.76591 13.7675 8.0033Z" fill="#030303"/>
</svg>
